<svg id="visual" viewBox="0 0 1200 900" width="1200" height="900" xmlns="http://www.w3.org/2000/svg" xmlns:xlink="http://www.w3.org/1999/xlink" version="1.1"><g stroke-width="2" stroke-linejoin="bevel"><path d="M563 482L499 542.5L579 575.5Z" fill="#112e42" stroke="#FFFFFF"></path><path d="M563 482L452 443L499 542.5Z" fill="#081a28" stroke="#FFFFFF"></path><path d="M368 597.5L489 660L499 542.5Z" fill="#081a28" stroke="#FFFFFF"></path><path d="M499 542.5L489 660L579 575.5Z" fill="#277297" stroke="#FFFFFF"></path><path d="M489 660L598 695L579 575.5Z" fill="#00101c" stroke="#FFFFFF"></path><path d="M563 482L502 365.5L452 443Z" fill="#205a7a" stroke="#FFFFFF"></path><path d="M707 359.5L569 347.5L563 482Z" fill="#112e42" stroke="#FFFFFF"></path><path d="M563 482L569 347.5L502 365.5Z" fill="#081a28" stroke="#FFFFFF"></path><path d="M730 484L563 482L579 575.5Z" fill="#15384f" stroke="#FFFFFF"></path><path d="M741 601.5L730 484L579 575.5Z" fill="#246688" stroke="#FFFFFF"></path><path d="M452 443L368 597.5L499 542.5Z" fill="#0c2435" stroke="#FFFFFF"></path><path d="M691 706L741 601.5L579 575.5Z" fill="#1d4e6b" stroke="#FFFFFF"></path><path d="M598 695L691 706L579 575.5Z" fill="#246688" stroke="#FFFFFF"></path><path d="M730 484L707 359.5L563 482Z" fill="#246688" stroke="#FFFFFF"></path><path d="M342 363.5L320 458L452 443Z" fill="#00101c" stroke="#FFFFFF"></path><path d="M452 443L320 458L368 597.5Z" fill="#112e42" stroke="#FFFFFF"></path><path d="M263 669L330 657L223 531.5Z" fill="#081a28" stroke="#FFFFFF"></path><path d="M368 597.5L330 657L489 660Z" fill="#1d4e6b" stroke="#FFFFFF"></path><path d="M489 660L501 798.5L598 695Z" fill="#15384f" stroke="#FFFFFF"></path><path d="M355 198L342 363.5L502 365.5Z" fill="#081a28" stroke="#FFFFFF"></path><path d="M502 365.5L342 363.5L452 443Z" fill="#112e42" stroke="#FFFFFF"></path><path d="M741 601.5L814 481L730 484Z" fill="#1d4e6b" stroke="#FFFFFF"></path><path d="M730 484L814 481L707 359.5Z" fill="#15384f" stroke="#FFFFFF"></path><path d="M864 566.5L814 481L741 601.5Z" fill="#277297" stroke="#FFFFFF"></path><path d="M338 783.5L501 798.5L489 660Z" fill="#0c2435" stroke="#FFFFFF"></path><path d="M598 695L638 816.5L691 706Z" fill="#246688" stroke="#FFFFFF"></path><path d="M501 798.5L638 816.5L598 695Z" fill="#205a7a" stroke="#FFFFFF"></path><path d="M691 706L749 770.5L741 601.5Z" fill="#246688" stroke="#FFFFFF"></path><path d="M707 359.5L592 236L569 347.5Z" fill="#00101c" stroke="#FFFFFF"></path><path d="M569 347.5L506 205L502 365.5Z" fill="#19435d" stroke="#FFFFFF"></path><path d="M638 816.5L749 770.5L691 706Z" fill="#081a28" stroke="#FFFFFF"></path><path d="M876 672L864 566.5L741 601.5Z" fill="#081a28" stroke="#FFFFFF"></path><path d="M223 531.5L330 657L368 597.5Z" fill="#00101c" stroke="#FFFFFF"></path><path d="M330 657L338 783.5L489 660Z" fill="#277297" stroke="#FFFFFF"></path><path d="M223 531.5L368 597.5L320 458Z" fill="#15384f" stroke="#FFFFFF"></path><path d="M204 430L223 531.5L320 458Z" fill="#0c2435" stroke="#FFFFFF"></path><path d="M263 669L338 783.5L330 657Z" fill="#112e42" stroke="#FFFFFF"></path><path d="M501 798.5L623 900L638 816.5Z" fill="#1d4e6b" stroke="#FFFFFF"></path><path d="M592 236L506 205L569 347.5Z" fill="#15384f" stroke="#FFFFFF"></path><path d="M814 481L814 333.5L707 359.5Z" fill="#112e42" stroke="#FFFFFF"></path><path d="M707 359.5L748 202L592 236Z" fill="#081a28" stroke="#FFFFFF"></path><path d="M929 429L814 333.5L814 481Z" fill="#15384f" stroke="#FFFFFF"></path><path d="M749 770.5L876 672L741 601.5Z" fill="#246688" stroke="#FFFFFF"></path><path d="M355 198L265 315.5L342 363.5Z" fill="#19435d" stroke="#FFFFFF"></path><path d="M342 363.5L204 430L320 458Z" fill="#205a7a" stroke="#FFFFFF"></path><path d="M265 315.5L204 430L342 363.5Z" fill="#297ea6" stroke="#FFFFFF"></path><path d="M380 900L496 900L501 798.5Z" fill="#205a7a" stroke="#FFFFFF"></path><path d="M638 816.5L680 900L749 770.5Z" fill="#112e42" stroke="#FFFFFF"></path><path d="M496 900L623 900L501 798.5Z" fill="#1d4e6b" stroke="#FFFFFF"></path><path d="M749 770.5L867 759.5L876 672Z" fill="#15384f" stroke="#FFFFFF"></path><path d="M814 333.5L748 202L707 359.5Z" fill="#00101c" stroke="#FFFFFF"></path><path d="M574 99.5L498 116.5L506 205Z" fill="#00101c" stroke="#FFFFFF"></path><path d="M506 205L355 198L502 365.5Z" fill="#1d4e6b" stroke="#FFFFFF"></path><path d="M377 136.5L355 198L506 205Z" fill="#246688" stroke="#FFFFFF"></path><path d="M623 900L680 900L638 816.5Z" fill="#112e42" stroke="#FFFFFF"></path><path d="M860 900L867 759.5L749 770.5Z" fill="#1d4e6b" stroke="#FFFFFF"></path><path d="M947 654L864 566.5L876 672Z" fill="#277297" stroke="#FFFFFF"></path><path d="M998 542.5L929 429L864 566.5Z" fill="#246688" stroke="#FFFFFF"></path><path d="M864 566.5L929 429L814 481Z" fill="#297ea6" stroke="#FFFFFF"></path><path d="M814 333.5L858 229L748 202Z" fill="#277297" stroke="#FFFFFF"></path><path d="M355 198L253 260L265 315.5Z" fill="#1d4e6b" stroke="#FFFFFF"></path><path d="M85 375.5L126 423L204 430Z" fill="#1d4e6b" stroke="#FFFFFF"></path><path d="M276 900L380 900L338 783.5Z" fill="#0c2435" stroke="#FFFFFF"></path><path d="M338 783.5L380 900L501 798.5Z" fill="#19435d" stroke="#FFFFFF"></path><path d="M263 669L259 816.5L338 783.5Z" fill="#112e42" stroke="#FFFFFF"></path><path d="M101 770.5L259 816.5L263 669Z" fill="#00101c" stroke="#FFFFFF"></path><path d="M113 647L263 669L223 531.5Z" fill="#297ea6" stroke="#FFFFFF"></path><path d="M867 759.5L947 654L876 672Z" fill="#15384f" stroke="#FFFFFF"></path><path d="M748 202L684 135.5L592 236Z" fill="#112e42" stroke="#FFFFFF"></path><path d="M574 99.5L506 205L592 236Z" fill="#205a7a" stroke="#FFFFFF"></path><path d="M498 116.5L377 136.5L506 205Z" fill="#277297" stroke="#FFFFFF"></path><path d="M355 198L279 96.5L253 260Z" fill="#1d4e6b" stroke="#FFFFFF"></path><path d="M748 202L874 78.5L684 135.5Z" fill="#277297" stroke="#FFFFFF"></path><path d="M956 258L858 229L814 333.5Z" fill="#112e42" stroke="#FFFFFF"></path><path d="M684 135.5L574 99.5L592 236Z" fill="#297ea6" stroke="#FFFFFF"></path><path d="M332 0L279 96.5L377 136.5Z" fill="#00101c" stroke="#FFFFFF"></path><path d="M85 375.5L204 430L265 315.5Z" fill="#112e42" stroke="#FFFFFF"></path><path d="M204 430L126 423L223 531.5Z" fill="#081a28" stroke="#FFFFFF"></path><path d="M947 654L998 542.5L864 566.5Z" fill="#15384f" stroke="#FFFFFF"></path><path d="M929 429L981 327.5L814 333.5Z" fill="#0c2435" stroke="#FFFFFF"></path><path d="M82 551.5L113 647L223 531.5Z" fill="#0c2435" stroke="#FFFFFF"></path><path d="M92 900L276 900L259 816.5Z" fill="#297ea6" stroke="#FFFFFF"></path><path d="M259 816.5L276 900L338 783.5Z" fill="#081a28" stroke="#FFFFFF"></path><path d="M126 423L82 551.5L223 531.5Z" fill="#0c2435" stroke="#FFFFFF"></path><path d="M1069 451L981 327.5L929 429Z" fill="#00101c" stroke="#FFFFFF"></path><path d="M680 900L860 900L749 770.5Z" fill="#112e42" stroke="#FFFFFF"></path><path d="M867 759.5L960 808.5L947 654Z" fill="#1d4e6b" stroke="#FFFFFF"></path><path d="M947 654L1044 582.5L998 542.5Z" fill="#0c2435" stroke="#FFFFFF"></path><path d="M735 0L573 0L684 135.5Z" fill="#246688" stroke="#FFFFFF"></path><path d="M981 327.5L956 258L814 333.5Z" fill="#081a28" stroke="#FFFFFF"></path><path d="M124 258L85 375.5L265 315.5Z" fill="#15384f" stroke="#FFFFFF"></path><path d="M0 411L0 551.5L82 551.5Z" fill="#277297" stroke="#FFFFFF"></path><path d="M124 258L265 315.5L253 260Z" fill="#1d4e6b" stroke="#FFFFFF"></path><path d="M860 900L960 808.5L867 759.5Z" fill="#081a28" stroke="#FFFFFF"></path><path d="M1093 710L1044 582.5L947 654Z" fill="#205a7a" stroke="#FFFFFF"></path><path d="M998 542.5L1069 451L929 429Z" fill="#081a28" stroke="#FFFFFF"></path><path d="M279 96.5L124 258L253 260Z" fill="#112e42" stroke="#FFFFFF"></path><path d="M0 751.5L101 770.5L113 647Z" fill="#297ea6" stroke="#FFFFFF"></path><path d="M113 647L101 770.5L263 669Z" fill="#0c2435" stroke="#FFFFFF"></path><path d="M475 0L377 136.5L498 116.5Z" fill="#15384f" stroke="#FFFFFF"></path><path d="M377 136.5L279 96.5L355 198Z" fill="#081a28" stroke="#FFFFFF"></path><path d="M1044 582.5L1069 451L998 542.5Z" fill="#246688" stroke="#FFFFFF"></path><path d="M981 327.5L1104 188L956 258Z" fill="#0c2435" stroke="#FFFFFF"></path><path d="M860 900L935 900L960 808.5Z" fill="#277297" stroke="#FFFFFF"></path><path d="M960 808.5L1093 710L947 654Z" fill="#081a28" stroke="#FFFFFF"></path><path d="M684 135.5L573 0L574 99.5Z" fill="#081a28" stroke="#FFFFFF"></path><path d="M574 99.5L475 0L498 116.5Z" fill="#081a28" stroke="#FFFFFF"></path><path d="M874 78.5L748 202L858 229Z" fill="#15384f" stroke="#FFFFFF"></path><path d="M573 0L475 0L574 99.5Z" fill="#297ea6" stroke="#FFFFFF"></path><path d="M0 411L82 551.5L126 423Z" fill="#0c2435" stroke="#FFFFFF"></path><path d="M82 551.5L0 654L113 647Z" fill="#19435d" stroke="#FFFFFF"></path><path d="M0 411L126 423L85 375.5Z" fill="#00101c" stroke="#FFFFFF"></path><path d="M977 137.5L858 229L956 258Z" fill="#297ea6" stroke="#FFFFFF"></path><path d="M977 137.5L874 78.5L858 229Z" fill="#15384f" stroke="#FFFFFF"></path><path d="M0 326.5L0 411L85 375.5Z" fill="#00101c" stroke="#FFFFFF"></path><path d="M0 551.5L0 654L82 551.5Z" fill="#15384f" stroke="#FFFFFF"></path><path d="M874 78.5L735 0L684 135.5Z" fill="#297ea6" stroke="#FFFFFF"></path><path d="M1069 451L1086 351.5L981 327.5Z" fill="#15384f" stroke="#FFFFFF"></path><path d="M1062 802.5L1093 710L960 808.5Z" fill="#205a7a" stroke="#FFFFFF"></path><path d="M1044 582.5L1200 486L1069 451Z" fill="#19435d" stroke="#FFFFFF"></path><path d="M1069 451L1200 369.5L1086 351.5Z" fill="#081a28" stroke="#FFFFFF"></path><path d="M475 0L332 0L377 136.5Z" fill="#112e42" stroke="#FFFFFF"></path><path d="M0 248L0 326.5L124 258Z" fill="#297ea6" stroke="#FFFFFF"></path><path d="M124 258L0 326.5L85 375.5Z" fill="#297ea6" stroke="#FFFFFF"></path><path d="M1059 900L1062 802.5L960 808.5Z" fill="#00101c" stroke="#FFFFFF"></path><path d="M1104 188L977 137.5L956 258Z" fill="#1d4e6b" stroke="#FFFFFF"></path><path d="M0 248L124 258L0 117.5Z" fill="#15384f" stroke="#FFFFFF"></path><path d="M101 770.5L92 900L259 816.5Z" fill="#205a7a" stroke="#FFFFFF"></path><path d="M0 900L92 900L101 770.5Z" fill="#205a7a" stroke="#FFFFFF"></path><path d="M0 654L0 751.5L113 647Z" fill="#19435d" stroke="#FFFFFF"></path><path d="M981 0L851 0L874 78.5Z" fill="#205a7a" stroke="#FFFFFF"></path><path d="M874 78.5L851 0L735 0Z" fill="#0c2435" stroke="#FFFFFF"></path><path d="M80 82.5L124 258L279 96.5Z" fill="#19435d" stroke="#FFFFFF"></path><path d="M332 0L229 0L279 96.5Z" fill="#15384f" stroke="#FFFFFF"></path><path d="M935 900L1059 900L960 808.5Z" fill="#277297" stroke="#FFFFFF"></path><path d="M1200 651L1044 582.5L1093 710Z" fill="#0c2435" stroke="#FFFFFF"></path><path d="M136 0L80 82.5L279 96.5Z" fill="#297ea6" stroke="#FFFFFF"></path><path d="M1200 599.5L1200 486L1044 582.5Z" fill="#0c2435" stroke="#FFFFFF"></path><path d="M1086 351.5L1104 188L981 327.5Z" fill="#081a28" stroke="#FFFFFF"></path><path d="M1200 599.5L1044 582.5L1200 651Z" fill="#246688" stroke="#FFFFFF"></path><path d="M1200 261L1104 188L1086 351.5Z" fill="#19435d" stroke="#FFFFFF"></path><path d="M977 137.5L981 0L874 78.5Z" fill="#112e42" stroke="#FFFFFF"></path><path d="M1200 651L1093 710L1200 758.5Z" fill="#0c2435" stroke="#FFFFFF"></path><path d="M1104 188L1084 143.5L977 137.5Z" fill="#112e42" stroke="#FFFFFF"></path><path d="M1200 758.5L1093 710L1062 802.5Z" fill="#297ea6" stroke="#FFFFFF"></path><path d="M0 751.5L0 900L101 770.5Z" fill="#205a7a" stroke="#FFFFFF"></path><path d="M1200 486L1200 369.5L1069 451Z" fill="#246688" stroke="#FFFFFF"></path><path d="M1104 188L1200 89.5L1084 143.5Z" fill="#1d4e6b" stroke="#FFFFFF"></path><path d="M229 0L136 0L279 96.5Z" fill="#00101c" stroke="#FFFFFF"></path><path d="M1073 0L981 0L977 137.5Z" fill="#277297" stroke="#FFFFFF"></path><path d="M1200 900L1200 758.5L1062 802.5Z" fill="#19435d" stroke="#FFFFFF"></path><path d="M0 0L0 117.5L80 82.5Z" fill="#246688" stroke="#FFFFFF"></path><path d="M80 82.5L0 117.5L124 258Z" fill="#19435d" stroke="#FFFFFF"></path><path d="M1200 369.5L1200 261L1086 351.5Z" fill="#0c2435" stroke="#FFFFFF"></path><path d="M1084 143.5L1073 0L977 137.5Z" fill="#081a28" stroke="#FFFFFF"></path><path d="M1200 89.5L1073 0L1084 143.5Z" fill="#277297" stroke="#FFFFFF"></path><path d="M1059 900L1200 900L1062 802.5Z" fill="#081a28" stroke="#FFFFFF"></path><path d="M136 0L0 0L80 82.5Z" fill="#00101c" stroke="#FFFFFF"></path><path d="M1200 261L1200 89.5L1104 188Z" fill="#19435d" stroke="#FFFFFF"></path><path d="M1200 89.5L1200 0L1073 0Z" fill="#0c2435" stroke="#FFFFFF"></path></g></svg>